<svg xmlns="http://www.w3.org/2000/svg" viewBox="0 0 300.79 99.24"><defs><style>.cls-1{font-size:29.65px;font-family:SourceSansPro-Black, Source Sans Pro;letter-spacing:-0.12em;}.cls-1,.cls-5{fill:#fff;}.cls-2{letter-spacing:0.08em;}.cls-3{font-size:73.6px;letter-spacing:0.1em;}.cls-4{letter-spacing:0.14em;}</style></defs><title>logo-v2</title><g id="Layer_1" data-name="Layer 1"><text class="cls-1" transform="translate(81.17 24.61)"> <tspan class="cls-2" x="2.37" y="0">GET CLEANER</tspan><tspan class="cls-3"><tspan x="0" y="50.64">C</tspan><tspan class="cls-4" x="50.27" y="50.64">ODE</tspan></tspan></text><ellipse class="cls-5" cx="25.21" cy="10.6" rx="6.53" ry="6.36"/><path class="cls-5" d="M62.59,75.08a12.48,12.48,0,0,1,.14,2H84s-.58-.18-.62-2.41H62.55C62.56,74.83,62.57,75,62.59,75.08Z" transform="translate(-11.91 -1.67)"/><path class="cls-5" d="M83.34,74.71" transform="translate(-11.91 -1.67)"/><path class="cls-5" d="M81.25,71.74H72.87s-24.7-29.48-24.7-29.3c1.71-3.52-2-4.82-2-4.82L36.7,35c-.19.41,2-5,3.52-8.53.76-4.82-3.11-5.21-3.11-5.21s-3-1.42-6.53-2.65c-3-1-4.55,0-4.55,0L14,23.87C10,25.66,12.9,29.09,12.9,29.09l5,5.84s-2.59,4.71-2.78,6.93,3.11,7,3.11,7l4.54,9-5.23,15a3.47,3.47,0,0,0,2.54,3.87,3.63,3.63,0,0,0,4.38-1.85s1.51-4.63,3.11-9.13c1.31-3.67,2.79-7.24,2.79-8.12,0-1.95-1.95-4.44-3.38-7.13-1.3-2.45-2.57-4.42-2.24-4.65l.57.65,6.47,10.94L30.3,73.69a3.36,3.36,0,0,0,3.35,3.43,3.3,3.3,0,0,0,3.46-2.23l1.77-14.28c.86-4.73-.19-5.84-.19-5.84l-6.09-10,.57-1.3,1-2.87,10,2.78L68.11,71.69s-1.67,0-3.19,0a2.45,2.45,0,0,0-2.37,2.5H83.32A2.66,2.66,0,0,0,81.25,71.74Zm-61-43.48-.86-.74L20.9,27Z" transform="translate(-11.91 -1.67)"/></g></svg>