<?xml version="1.0" encoding="utf-8"?>
<!-- Generator: Adobe Illustrator 18.0.0, SVG Export Plug-In . SVG Version: 6.00 Build 0)  -->
<!DOCTYPE svg PUBLIC "-//W3C//DTD SVG 1.1//EN" "http://www.w3.org/Graphics/SVG/1.1/DTD/svg11.dtd">
<svg version="1.1" id="Layer_1" xmlns="http://www.w3.org/2000/svg" xmlns:xlink="http://www.w3.org/1999/xlink" x="0px" y="0px"
	 viewBox="117.5 208.7 400.2 389.4" enable-background="new 117.5 208.7 400.2 389.4" xml:space="preserve">
<path fill="#999999" d="M317,208.7c-110.2,0-199.5,89.4-199.5,199.5c0,88.1,57.5,162.8,135.9,189.7c9.8,1.2,13.5-4.9,13.5-9.8
	c0-4.9,0-17.1,0-34.3c-55.1,12.2-67.3-26.9-67.3-26.9c-8.6-23.3-22-29.4-22-29.4c-18.4-12.2,1.2-12.2,1.2-12.2
	c19.6,1.2,30.6,20.8,30.6,20.8c18.4,30.6,46.5,22,57.5,17.1c1.2-13.5,7.3-22,12.2-26.9c-44.1-4.9-90.6-22-90.6-99.1
	c0-22,7.3-39.2,20.8-53.9c-2.4-4.9-8.6-25.7,2.4-52.6c0,0,17.1-4.9,55.1,20.8c15.9-4.9,33-6.1,50.2-6.1c17.1,0,34.3,2.4,50.2,6.1
	c37.9-25.7,55.1-20.8,55.1-20.8c11,26.9,3.7,47.7,2.4,52.6c12.2,13.5,20.8,31.8,20.8,53.9c0,77.1-46.5,93-90.6,97.9
	c7.3,6.1,13.5,18.4,13.5,36.7c0,26.9,0,47.7,0,55.1c0,4.9,3.7,11,13.5,9.8c79.6-26.9,135.9-101.6,135.9-189.7
	C515.3,298.1,427.2,208.7,317,208.7z"/>
</svg>
